<?xml version="1.0" standalone="no"?>
<!DOCTYPE svg PUBLIC "-//W3C//DTD SVG 20010904//EN"
 "http://www.w3.org/TR/2001/REC-SVG-20010904/DTD/svg10.dtd">
<svg version="1.0" xmlns="http://www.w3.org/2000/svg"
 width="1000.000000pt" height="1000.000000pt" viewBox="0 0 1000.000000 1000.000000"
 preserveAspectRatio="xMidYMid meet">
<metadata>
Created by potrace 1.16, written by Peter Selinger 2001-2019
</metadata>
<g transform="translate(0.000000,1000.000000) scale(0.100000,-0.100000)"
fill="#000000" stroke="none">
<path d="M4690 9384 c-19 -3 -98 -11 -175 -20 -525 -56 -1108 -248 -1581 -519
-1219 -699 -2018 -1934 -2176 -3360 -21 -189 -17 -801 5 -985 138 -1109 644
-2084 1454 -2800 646 -570 1402 -914 2267 -1033 142 -19 205 -22 531 -22 408
0 525 11 845 75 1088 220 2064 883 2697 1835 382 574 620 1226 710 1945 26
209 26 821 0 1030 -139 1111 -644 2084 -1454 2800 -569 502 -1230 832 -1963
980 -306 62 -420 72 -795 75 -181 2 -346 1 -365 -1z m-160 -1921 c121 -33 216
-98 278 -191 l38 -57 -14 -50 c-10 -33 -15 -107 -16 -222 0 -95 -4 -168 -9
-164 -4 4 -16 40 -27 79 -35 126 -110 278 -196 399 -42 59 -74 80 -74 50 0 -7
22 -43 49 -79 99 -136 201 -377 217 -511 8 -67 8 -67 -77 -32 -170 69 -291
211 -339 399 -14 55 -19 113 -20 240 l-1 168 68 -7 c37 -4 93 -13 123 -22z
m688 -894 c12 -46 46 -178 76 -293 30 -114 60 -214 67 -221 8 -8 138 -87 288
-175 313 -184 258 -165 682 -239 139 -24 241 -47 265 -59 85 -44 115 -90 256
-389 l134 -282 189 -226 c105 -124 198 -240 208 -258 64 -117 -73 -260 -191
-200 -25 13 -105 100 -244 264 -222 261 -204 233 -342 524 l-23 50 -11 -55
c-6 -30 -37 -201 -68 -379 l-57 -324 38 -211 c20 -116 50 -285 66 -376 16 -91
43 -241 59 -335 16 -93 41 -233 55 -310 30 -172 31 -216 4 -273 -56 -115 -199
-144 -295 -59 -51 44 -61 70 -88 224 -14 76 -45 255 -71 398 -25 143 -61 348
-80 455 -87 490 -75 442 -112 459 -20 9 -33 9 -54 1 -25 -11 -42 -49 -174
-378 l-146 -366 -19 -155 c-11 -86 -29 -241 -40 -346 -23 -209 -39 -258 -94
-300 -80 -61 -186 -55 -257 16 -65 65 -67 85 -35 367 16 136 36 308 46 382
l17 135 148 370 c81 204 154 388 162 410 12 36 38 175 144 775 16 96 34 195
39 220 6 32 5 48 -3 56 -7 7 -140 87 -297 179 -157 92 -298 179 -313 194 -16
14 -40 44 -53 67 -28 47 -184 635 -184 692 0 46 16 70 50 77 14 3 45 10 70 15
25 5 58 15 74 24 28 14 29 14 61 -24 22 -26 38 -63 53 -121z m-329 80 c-18
-34 -8 -96 50 -317 l59 -224 -25 -86 c-28 -97 -46 -132 -95 -179 -18 -17 -163
-109 -323 -203 -159 -95 -292 -173 -294 -176 -4 -4 11 -104 44 -289 13 -71 47
-262 75 -423 28 -161 57 -309 64 -330 8 -20 71 -181 141 -357 70 -176 138
-348 151 -382 23 -60 32 -129 98 -682 17 -146 9 -187 -47 -246 -41 -42 -93
-65 -147 -65 -69 1 -161 76 -179 147 -5 21 -26 184 -46 363 l-38 325 -146 370
c-131 330 -150 371 -175 384 -34 16 -71 3 -86 -31 -6 -13 -66 -340 -135 -727
-115 -656 -126 -708 -152 -745 -55 -78 -164 -104 -248 -60 -47 25 -94 95 -102
150 -3 25 40 288 116 721 67 376 121 699 121 718 0 19 -27 187 -59 373 -33
185 -61 348 -63 362 -3 19 -18 -4 -66 -105 -88 -186 -79 -173 -290 -424 -214
-254 -246 -287 -296 -296 -47 -9 -119 24 -146 67 -22 36 -27 116 -10 148 6 11
99 124 207 252 108 128 202 246 209 263 7 16 64 140 127 275 125 265 163 322
242 360 30 14 148 40 343 75 163 29 309 58 324 64 15 5 105 56 200 112 95 56
214 126 264 156 50 29 98 61 107 71 12 13 127 427 127 456 0 3 7 6 15 6 11 0
15 12 15 49 0 74 12 98 49 98 25 0 29 -3 20 -18z m-1036 -263 c68 -30 144
-103 177 -171 22 -43 25 -64 25 -155 0 -121 -14 -158 -92 -241 -170 -182 -464
-136 -575 89 -30 60 -33 75 -33 152 0 72 5 94 28 145 47 101 139 178 244 205
61 15 162 4 226 -24z m2558 18 c203 -59 311 -274 237 -471 -30 -81 -121 -171
-203 -202 -247 -93 -504 100 -483 362 7 82 35 144 95 208 95 102 226 140 354
103z"/>
</g>
</svg>
