<?xml version="1.0" standalone="no"?>
<!DOCTYPE svg PUBLIC "-//W3C//DTD SVG 20010904//EN"
 "http://www.w3.org/TR/2001/REC-SVG-20010904/DTD/svg10.dtd">
<svg version="1.0" xmlns="http://www.w3.org/2000/svg"
 width="1000.000000pt" height="1000.000000pt" viewBox="0 0 1000.000000 1000.000000"
 preserveAspectRatio="xMidYMid meet">

<g transform="translate(0.000000,1000.000000) scale(0.100000,-0.100000)"
fill="#000000" stroke="none">
<path d="M4750 9489 c-1850 -111 -3433 -1458 -3911 -3327 -399 -1562 34 -3225
1136 -4361 944 -973 2257 -1437 3571 -1261 1211 162 2290 845 2992 1897 832
1244 1001 2869 445 4273 -524 1325 -1623 2315 -2948 2655 -422 108 -852 150
-1285 124z m987 -1355 c-3 -3 -12 -4 -19 -1 -8 3 -5 6 6 6 11 1 17 -2 13 -5z
m-300 -176 c-3 -8 -6 -5 -6 6 -1 11 2 17 5 13 3 -3 4 -12 1 -19z m63 -21 c0
-2 -15 -16 -32 -33 l-33 -29 29 33 c28 30 36 37 36 29z m-153 -29 c-3 -8 -6
-5 -6 6 -1 11 2 17 5 13 3 -3 4 -12 1 -19z m243 8 c0 -2 -8 -10 -17 -17 -16
-13 -17 -12 -4 4 13 16 21 21 21 13z m-173 -48 c-3 -7 -5 -2 -5 12 0 14 2 19
5 13 2 -7 2 -19 0 -25z m123 9 c0 -2 -10 -12 -22 -23 l-23 -19 19 23 c18 21
26 27 26 19z m-203 -39 c-3 -7 -5 -2 -5 12 0 14 2 19 5 13 2 -7 2 -19 0 -25z
m63 -93 c-41 -41 -77 -75 -79 -75 -3 0 28 34 69 75 41 41 77 75 79 75 3 0 -28
-34 -69 -75z m-50 52 c0 -2 -17 -19 -37 -38 l-38 -34 34 38 c33 34 41 42 41
34z m407 -69 c-3 -8 -6 -5 -6 6 -1 11 2 17 5 13 3 -3 4 -12 1 -19z m-1397 -8
c185 -24 330 -111 420 -250 l30 -46 -15 -70 c-9 -38 -18 -149 -22 -247 -3 -97
-7 -176 -9 -174 -2 2 -15 41 -28 88 -32 110 -86 234 -143 330 -53 90 -129 189
-143 189 -28 0 -16 -35 40 -111 74 -103 170 -295 204 -409 30 -101 52 -217 43
-226 -11 -11 -143 42 -202 82 -147 97 -241 240 -279 421 -8 37 -14 140 -15
248 l-2 185 23 0 c13 0 57 -5 98 -10z m890 -33 c0 -2 -12 -14 -27 -28 l-28
-24 24 28 c23 25 31 32 31 24z m217 -23 c-3 -3 -12 -4 -19 -1 -8 3 -5 6 6 6
11 1 17 -2 13 -5z m-69 -11 c-10 -2 -26 -2 -35 0 -10 3 -2 5 17 5 19 0 27 -2
18 -5z m-488 -23 c-6 -11 -13 -20 -16 -20 -2 0 0 9 6 20 6 11 13 20 16 20 2 0
0 -9 -6 -20z m837 -22 c-3 -7 -5 -2 -5 12 0 14 2 19 5 13 2 -7 2 -19 0 -25z
m-567 -2 c0 -2 -8 -10 -17 -17 -16 -13 -17 -12 -4 4 13 16 21 21 21 13z m253
-23 c-7 -2 -19 -2 -25 0 -7 3 -2 5 12 5 14 0 19 -2 13 -5z m-100 -10 c-7 -2
-21 -2 -30 0 -10 3 -4 5 12 5 17 0 24 -2 18 -5z m404 -15 c-3 -8 -6 -5 -6 6
-1 11 2 17 5 13 3 -3 4 -12 1 -19z m-497 9 c0 -2 -10 -12 -22 -23 l-23 -19 19
23 c18 21 26 27 26 19z m-193 -29 c-3 -8 -6 -5 -6 6 -1 11 2 17 5 13 3 -3 4
-12 1 -19z m93 18 c0 -2 -8 -10 -17 -17 -16 -13 -17 -12 -4 4 13 16 21 21 21
13z m60 -40 c0 -2 -8 -10 -17 -17 -16 -13 -17 -12 -4 4 13 16 21 21 21 13z
m-148 -51 c3 -13 1 -22 -3 -19 -9 5 -13 44 -5 44 2 0 6 -11 8 -25z m-75 -27
c-3 -8 -6 -5 -6 6 -1 11 2 17 5 13 3 -3 4 -12 1 -19z m684 -95 c-12 -20 -14
-14 -5 12 4 9 9 14 11 11 3 -2 0 -13 -6 -23z m-274 -59 c-3 -3 -12 -4 -19 -1
-8 3 -5 6 6 6 11 1 17 -2 13 -5z m-337 -30 c0 -2 -9 -4 -21 -4 -11 0 -18 4
-14 10 5 8 35 3 35 -6z m233 9 c-7 -2 -19 -2 -25 0 -7 3 -2 5 12 5 14 0 19 -2
13 -5z m154 -15 c-3 -8 -6 -5 -6 6 -1 11 2 17 5 13 3 -3 4 -12 1 -19z m-234 5
c-13 -2 -33 -2 -45 0 -13 2 -3 4 22 4 25 0 35 -2 23 -4z m164 -49 c-3 -3 -12
-4 -19 -1 -8 3 -5 6 6 6 11 1 17 -2 13 -5z m-50 -10 c-3 -3 -12 -4 -19 -1 -8
3 -5 6 6 6 11 1 17 -2 13 -5z m-337 -12 c0 -5 -7 -17 -15 -28 -14 -18 -14 -17
-4 9 12 27 19 34 19 19z m263 1 c-7 -2 -21 -2 -30 0 -10 3 -4 5 12 5 17 0 24
-2 18 -5z m-130 -10 c-13 -2 -33 -2 -45 0 -13 2 -3 4 22 4 25 0 35 -2 23 -4z
m-272 -110 c-12 -20 -14 -14 -5 12 4 9 9 14 11 11 3 -2 0 -13 -6 -23z m559
-47 c0 -2 -8 -10 -17 -17 -16 -13 -17 -12 -4 4 13 16 21 21 21 13z m-214 -152
c-11 -7 -22 -12 -25 -9 -2 3 4 12 15 19 10 8 21 12 24 9 3 -2 -4 -11 -14 -19z
m-361 -64 c3 -5 1 -10 -4 -10 -6 0 -11 5 -11 10 0 6 2 10 4 10 3 0 8 -4 11
-10z m312 -56 c43 -33 56 -59 86 -179 32 -128 102 -397 118 -453 11 -41 16
-45 183 -144 94 -55 219 -130 278 -165 59 -35 122 -70 141 -78 18 -7 168 -37
333 -66 211 -36 314 -59 351 -76 75 -35 129 -94 175 -193 22 -47 56 -119 75
-160 123 -262 144 -307 155 -327 7 -12 101 -126 208 -253 107 -128 200 -242
207 -254 21 -36 16 -119 -9 -156 -44 -63 -129 -88 -193 -54 -34 17 -43 28
-289 319 -171 202 -180 216 -245 350 -38 77 -71 150 -75 163 -5 13 -9 22 -11
20 -5 -5 -31 -132 -49 -243 -9 -49 -25 -142 -36 -205 -55 -302 -56 -318 -36
-437 27 -158 52 -303 76 -433 11 -63 30 -167 41 -230 39 -225 48 -277 74 -420
53 -295 53 -290 10 -365 -61 -106 -191 -134 -288 -62 -54 42 -81 99 -100 217
-20 118 -50 290 -77 440 -12 63 -30 165 -40 225 -20 117 -91 518 -111 622 -12
68 -34 96 -74 96 -38 -1 -59 -25 -90 -106 -16 -39 -36 -90 -45 -112 -10 -22
-30 -71 -44 -110 -15 -38 -33 -83 -40 -100 -8 -16 -26 -61 -40 -100 -15 -38
-31 -79 -36 -90 -58 -128 -67 -168 -95 -425 -53 -486 -57 -502 -136 -560 -80
-58 -179 -49 -253 23 -70 67 -73 93 -47 315 12 103 31 268 42 367 20 172 40
261 79 350 10 22 30 72 44 110 15 39 33 84 40 100 8 17 26 62 40 100 15 39 33
84 40 100 8 17 26 62 40 100 15 39 31 79 36 90 32 70 44 118 71 265 16 91 36
201 44 245 8 44 23 132 34 195 12 63 34 189 50 279 16 90 27 169 25 175 -3 6
-33 27 -67 47 -435 251 -526 306 -566 343 -58 54 -78 98 -126 282 -26 98 -65
247 -87 329 -44 164 -45 203 -7 254 53 72 148 87 216 35z m-207 21 c0 -3 -9
-16 -21 -28 -49 -52 -51 -120 -8 -284 17 -65 43 -166 58 -224 l27 -105 -24
-90 c-34 -126 -79 -186 -192 -254 -51 -31 -333 -196 -477 -279 -34 -20 -64
-41 -66 -46 -3 -6 4 -60 15 -120 10 -61 25 -146 33 -190 7 -44 25 -145 40
-225 14 -80 31 -172 36 -205 42 -253 60 -326 114 -460 30 -77 60 -149 65 -160
5 -11 21 -51 36 -90 14 -38 32 -83 40 -100 7 -16 25 -61 40 -100 14 -38 34
-88 44 -110 39 -89 59 -178 79 -350 11 -99 30 -264 42 -367 26 -221 23 -245
-46 -313 -75 -75 -176 -84 -258 -21 -76 57 -80 75 -132 551 -28 262 -37 301
-95 430 -5 11 -21 52 -36 90 -14 39 -32 84 -40 100 -7 17 -25 62 -40 100 -14
39 -34 88 -44 110 -9 22 -29 73 -45 112 -31 81 -52 106 -90 106 -40 -1 -62
-28 -75 -96 -31 -172 -53 -292 -110 -622 -10 -60 -28 -162 -40 -225 -24 -131
-52 -292 -75 -430 -21 -128 -40 -174 -89 -216 -122 -104 -295 -41 -330 122 -7
32 -5 52 39 294 26 143 35 195 74 420 11 63 30 167 41 230 12 63 30 165 40
225 10 61 26 148 34 195 20 104 20 152 0 255 -18 100 -50 282 -70 400 -16 95
-44 238 -47 241 -1 2 -31 -60 -66 -136 -87 -190 -53 -144 -449 -609 -40 -47
-87 -94 -105 -103 -65 -36 -150 -13 -194 52 -26 37 -31 120 -10 156 7 12 100
126 207 254 107 127 201 241 208 253 11 20 32 65 155 327 170 366 150 351 601
429 165 29 315 59 333 66 19 8 82 43 141 78 59 35 184 110 278 165 167 99 172
103 183 144 14 51 83 315 117 448 32 127 41 146 83 180 31 26 71 40 71 25z
m-1114 -361 c103 -52 174 -144 199 -259 15 -66 15 -77 0 -141 -27 -118 -96
-206 -203 -260 -52 -27 -66 -29 -162 -29 -94 1 -110 3 -157 28 -64 33 -141
109 -170 168 -31 62 -43 151 -31 224 38 240 307 378 524 269z m2691 0 c65 -31
136 -101 168 -164 49 -96 50 -233 2 -328 -29 -58 -101 -130 -168 -167 -50 -28
-61 -30 -159 -30 -96 0 -110 2 -162 29 -107 54 -176 142 -203 260 -15 64 -15
75 0 141 53 240 305 364 522 259z"/>
</g>
</svg>
